<?xml version="1.0" encoding="UTF-8"?>
<svg id="Layer_1" data-name="Layer 1" xmlns="http://www.w3.org/2000/svg" viewBox="0 0 449.25 343.51">
  <defs>
    <style>
      .cls-1 {
        fill: #f7e413;
      }

      .cls-2 {
        fill: #f7e30a;
      }

      .cls-3 {
        fill: #f9eb55;
      }

      .cls-4 {
        fill: #f7e30c;
      }

      .cls-5 {
        fill: #f7e30b;
      }

      .cls-6 {
        fill: #f8e839;
      }

      .cls-7 {
        fill: #f7e40f;
      }

      .cls-8 {
        fill: #f7e414;
      }

      .cls-9 {
        fill: #f7e51f;
      }

      .cls-10 {
        fill: #f8e948;
      }

      .cls-11 {
        fill: #f7e417;
      }

      .cls-12 {
        fill: #f7e51b;
      }
    </style>
  </defs>
  <g>
    <g>
      <path class="cls-2" d="M335.22,74.26c-23.76-27.03-59.22-45.51-95.2-48.68-10.27-.91-20.28-1.09-30.46-.02-57.86,6.06-106.03,45.44-124.35,100.93-2.95-3.12-5.41-5.62-10.32-5.71C107.13,29.24,207.95-12.33,294.54,29.04c39.18,18.72,72.02,56.46,83.94,102.27.8,3.06,1.72,6.04-1.19,9.16-1.31-6.12-5.76-9.12-11.25-10.68-6.11-20.24-16.65-39.44-30.81-55.53Z"/>
      <path class="cls-2" d="M335.88,51.16c-61.93-57.28-157.83-57.57-220.21-1.27-21.04,18.99-37.22,42.91-46.01,70.57-3.02.98-5.06,2.14-9.26,2.75C83.95,45.47,156.37-5.79,238.98.52c72.62,5.55,133.62,57.65,152.22,127.58-2.95-.23-5.53.24-7.73,2.02-8.07-30.77-24.27-57.4-47.59-78.97Z"/>
      <path class="cls-2" d="M355.14,143.62c-14.89-66.93-76.44-111.42-144.49-104.1-63,6.77-112.42,57.29-117.92,120.17-3.27-2.51-4.69-4.99-7.38-6.52,8.68-64.04,60.35-115.24,125.09-121.68,68.98-6.87,130.62,35.37,150.2,101.5-1.81,3.91-2.97,7.14-5.5,10.62Z"/>
    </g>
    <g>
      <path class="cls-5" d="M401.81,224.13c.13-.07,12.03,11.01,23.8-19.19-3.78,2.77-6.36,5.33-10.61,3.98-3.41-1.08-6.66-4.25-6.93-8.87-6.34,4.16-5.69,12.28-16.09,8.71-10.99-3.77-1.9-27.81,1.24-35.73-5.84,6.65-9.55,14.37-14.25,21.78-6.65,10.48,1.49,17.25-4.26,16.4-2.2-.33-7.3-5.92-7.86-10.27-2.28,4.46-6.99,8.55-12.08,8.32-2.03-.09-4.2-1.64-5.76-4.01-7.03-10.7,1.88-37.37,6.13-48.4-2.93-.92-4.8-1.41-6.73-2.92s-2.86-6.14-.14-6.51c2.11.21,6.17,5.04,9.02,2.19,3.35-3.35,4.01-11.81,9.1-14.37,4.93.44,7.58,8.06,5.62,13.15,1.43.96,5.5,1.57,6.66.21,3.79-4.98,5.31-12.94,9.99-16.38,5.81,3.89,6.73,9.73,4.28,15.55-3.84,9.1-8.08,17.6-10.82,27.96,5-3.2,11.98-19.54,23.29-13.61,2.7,1.42,3.65,5.81,2.6,8.87-3.6,10.4-8.78,19.71-10.21,30.72,14.64-13.38,13.23-28.53,22.03-42.13,1.51-2.33,11.56,4.2,9.07,9.25-4.89,9.91-9.23,19.99-10.95,31.85,4.08,1.53,15.63-17,16.63-21.15l4.9-20.44c3.25-.06,8.64,1.57,9.53,5.1,1.05,4.19-1.36,8.39-2.35,12.34-3.93,15.72-8.15,31.02-15.52,45.29-4.82,9.34-15.66,20.69-25.58,14.58-4.54-2.8-7.32-10.32-3.73-12.27ZM356.43,202.06c7.85-4,11.07-10.99,12.1-18.82,1.15-8.75,4.15-16.58,7.05-25.71-2.48.04-4.6,1.08-7.67.39-4.75,11.7-12.75,31.5-11.49,44.13ZM390.36,198.14c-.91-6.36.96-11.55,2.55-17.02-1.62-.84-7.02,19.99-2.55,17.02Z"/>
      <path class="cls-5" d="M102.74,209.07c-6.06.35-8.9-6.08-8.67-11.12-3.47,3-5.13,7.57-9.39,9.46s-8.75.43-11.39-2.71c-2.92-3.47-3.46-7.03-2.34-11.79,2.66-11.34,6.21-22.27,11.37-33.02,4.24.29,8.96,4.39,10.11,8.15-4.38,9.89-8.91,19.18-10.42,30.43,9.01.65,19.56-30.77,23.55-37.1,3.26-1.92,10.67,2.83,10.4,6.33-5.01,10-9.98,20.63-10.55,32.33,9.42-7.26,14.71-20.67,19.62-30.96-1.99-3.06-2.46-6.94-.42-10.56,1.78-3.17,2.82-4.43,6.05-4.75,3.64-.36,3.85,3.83,5.9,5.07,12.65,7.63,28.74-6.21,29.83,5.86.22,2.48-.65,5.69-3.41,7.14-2.43,1.27-17.36,15.42-20.55,18.46s-6.8,4.8-9.23,8.81c11.54-.05,21.51,2.04,29.26,4.77,2.88-9.56,10.97-15.52,17.96-21.57,4.04-3.5,6.95-7.66,11.71-10.91l-16.5-.67c-3.01-.12-6.09-1.26-7.27-3.25-3.61-6.12,2.12-14.35,5.97-13.92,3.52.4,5.07,3.33,6.45,6.15,13.44,3.32,19.87-.55,25.45-.33,2.53.1,5.77,6.66,4.04,8.49-3.41,3.61-6.88,6.64-10.43,9.88l-10.98,10.03c-4.02,3.67-8.43,6.67-11.63,11.12,6.25.45,31.45,1.48,30.93,9.11-.25,3.67-2.72,6.49-5.29,9.04-5.28-4.17-22.97-8.24-28.52-7.63-3.3.36-7.08.74-9.69.27-1.76,1.91-3.06,6.11-6.14,7.26-7.01-4.61-14.88-6.14-23.05-7.23-9.82-1.32-11.86,2.29-14.74-.54-6.94-6.82,7.48-19.59,12.61-23.92s9.26-9.96,15.31-13.82c-6.66-.98-11.9.44-17.21-.92-6.18,9.62-16.36,37.83-28.75,38.55ZM107.39,175.11c0-.35-.28-.63-.63-.63s-.63.28-.63.63.28.63.63.63.63-.28.63-.63ZM103.61,185c.98-2.86,2.38-4.82,2.43-8-1.36,2.55-3.17,4.85-2.43,8ZM101.77,195.2c.52-2.97,1.6-5.61,1.26-9.25-1.96,2.63-2.51,5.7-1.26,9.25Z"/>
      <path class="cls-5" d="M43.61,162.8c4.49-3.5,32.66-24.43,28.21-29.74-.68-.81-2.02-1.34-3.41-.85-19.68,6.97-35.55,37.47-35.26,57.91-4-.2-8.61.25-12.12-2.05-7.17-4.71,7.74-39.91,10.85-47.28.86-2.03,2.59-4.07.5-6.15-8.97,6.85-26.7,32.21-17.36,42.9-4.83,1.63-8.99-.03-11.92-2.89s-3.97-7.56-2.22-12.11c5.61-14.57,16.59-27.03,30.64-34,4.93-2.45,13.49-1.32,15.1,3.9.83,5.27-4.65,9.93-4.99,15.47,6.29-9.53,24.77-28.45,36.43-21.21,13.3,8.27-4.16,29.64-12.84,36.82,3.11,2.36,8.25,5.3,8.52,9.92.31,5.48-1.27,11.52-3.93,16.18-7.56,13.26-19.78,21.88-34.41,25.64-3.74.96-7.87,1.73-11.94.31-6.59-2.3-10.2-12.82-4.94-18.06,6.94-6.91,23.02-9.34,27.3-6.45.51.35.87,2.69.17,2.83-9.27,1.82-18.61,4.73-25,12.32,14.35-1.37,39.73-17.44,37.56-32.88-1.01-3.53-7.82-3.89-11.13-3.87-2.22.02-5.64-5.24-3.82-6.66ZM35.39,134.11c0-.35-.28-.63-.63-.63s-.63.28-.63.63.28.63.63.63.63-.28.63-.63Z"/>
      <path class="cls-5" d="M338.12,190.68c-3.72-3.87-2.66-8.65-3.01-13.88-2.94,2.72-3.41,6.41-5.63,9.55-4.81,6.8-6.35,15-9.39,22.59-.84,2.09-4.16.67-5.49.29-4.86-1.38-4.43-10.65-4.55-15.25-2.91,3.19-7.45,3.55-10.46,6.42-3.78,3.61-7.38,7.13-12.73,8.39-8.7,2.04-16.76-3.46-19.01-12.4-1.85-7.35.11-15.46,3.31-22.29l6.16,1.06c-.84-5.94,1.91-10.64,5.5-14.18,3.97-3.91,10.35-5.23,15.69-3.1,11.97,4.78,11.25,20.16,7.67,31.27,9.58-7.29,6.96-19.11,14.18-29.18,2.16-3.02,11.49.92,10.54,4.22l-4.35,15c3.01-5.72,14.63-24.75,22.3-17.24,1.95,1.91,1.62,4.26.09,6.94-9.14,16.06-3.33,20.63-5.8,22.74-1.34,1.15-3.5.63-5.01-.94ZM292.85,193.02c3.3-3.96,11.03-30.85-.7-27.97-4.4,1.08-6.46,5.43-7.43,9.55-1.74,7.43.71,14.88,8.12,18.42ZM288.78,198.47c-4.85-3.53-6.86-6-9.24-9.27-.27,3.15-.95,6.07.19,8.62,1.65,3.66,7.16,2.74,9.05.65Z"/>
      <path class="cls-4" d="M226.84,165.24c-1.36,12.18-6.51,23.2-6.63,36.45,16-10.29,9.13-21.03,16.9-41.76,1.32-3.52,9.93,1,11.09,2.83,1.4,2.19,1.2,4.35.53,6.81-1.4,5.13-7.93,28.96-5.51,31.14,4.27,3.83,18.78-41.17,18.81-46.89,5.2.61,8.35,4.11,10.57,8.16-3.7,11.68-16.72,43.75-27.72,47.67-5.99,2.14-11.08-3.72-11.94-9.79-3.59,4.07-6.15,8.93-11.95,10.14-4.05.84-7.9-2.4-9.45-6.2-2.85-6.98-2.89-14.32-1.51-21.9s1.53-16.43,5.31-22.88c3-2.09,11.51,2.48,11.5,6.22Z"/>
      <path class="cls-3" d="M390.36,198.14c-4.47,2.97.93-17.86,2.55-17.02-1.59,5.48-3.46,10.66-2.55,17.02Z"/>
      <path class="cls-10" d="M101.77,195.2c-1.24-3.54-.7-6.61,1.26-9.25.33,3.63-.74,6.27-1.26,9.25Z"/>
      <path class="cls-10" d="M103.61,185c-.74-3.16,1.07-5.45,2.43-8-.05,3.19-1.45,5.15-2.43,8Z"/>
      <circle class="cls-10" cx="106.75" cy="175.11" r=".63"/>
    </g>
  </g>
  <g>
    <g>
      <path class="cls-2" d="M377.27,216.55c-18.69,62.32-73.15,107.42-137.26,113.12-79.71,7.09-149.3-43.92-168.86-119.81,5.09,2.75,8.22,3.8,12.99,3.22,19.45,66.67,83.22,110.6,152.1,105.3,61.91-4.76,114.23-48.05,130.41-107.44,3.42,3.48,6.77,5.02,10.61,5.61Z"/>
      <path class="cls-2" d="M391.56,213.49c-20.8,82.38-98.07,137.37-182.91,129.23-73.33-7.04-133.64-60.13-150.59-131.59,1.5-2.38,3.89-4.32,6.68-6.54,14.4,70.4,73,123.64,144.9,130.11,82.45,7.43,156.09-45.68,175.04-126.26,2.69,2.18,2.48,4.22,6.88,5.05Z"/>
      <path class="cls-5" d="M359.38,214.32c-17.47,54.46-65.82,93.42-123.12,98.09-67.07,5.47-128.23-38.19-146.66-102.06.33-.86,1.64-1.66,2.46-2.32,1.24,3.18,5.25,4.15,6.86,6.36,18.02,51.21,64.69,87.75,119.35,90.07,6.5.28,11.41.55,17.99-.04,53-4.73,97.96-40,114.89-90.21,2.76-.09,4.55-.36,8.24.12Z"/>
    </g>
    <g>
      <path class="cls-8" d="M138.51,140.07l-.72-12.05c-1.28,3.98-.94,8.56-3.35,12.05-.43.62-2.83.06-3.27-.38-1.16-1.13-2.18-9.96-3.52-11.73l-.64,11.92c-.03.61-2.68.28-2.68-.78l.1-25.73c0-.62,2.57-.37,2.9.15.85,1.35,5.12,16.94,5.27,20.62,1.03-.25,5.72-20.87,5.66-19.57.03-.7,2.8-.81,2.81-.16l.3,23.76c.02,1.71-.68,2.37-2.86,1.89Z"/>
      <path class="cls-8" d="M300.26,137.59c0,1.95-.54,2.42-1.51,2.57-1.1.16-1.49-.43-1.94-1.64l-6.22-16.55-.39,17.99c-1.02.26-1.84.28-2.91-.01l-.19-23.9c-.01-1.28,2.23-4.2,2.84-2.72l7.01,16.93.57-17.01c1.13-.8,2.8,1.15,2.79,2.83l-.06,21.51Z"/>
      <path class="cls-11" d="M186.72,139.6l-.84-9.22c-.17-1.88-3.83-1.37-5.51-1.12-.51,3.74.35,7.1-.36,10.62-.12.62-2.74.4-2.71-.85.19-7.94-.57-16.88.32-24.7,1.71-2.28,7.83-1.7,9.76.6,3.05,3.65,2.58,9.25.21,12.73,2.36,1.1,1.74,11.25,1.65,11.96s-2.45.9-2.53,0ZM185.28,117.53c-.89-.53-2.84-.69-4.56-.36-.99,2.67-.55,6.14-.16,8.99,2.61.04,4.15-.32,5.08-1.19,1.09-1.01,1.06-6.59-.36-7.44Z"/>
      <path class="cls-7" d="M321.88,135.68c.78-2.24.64-4.03.2-5.79-.31-1.23-3.07-.53-4.42-3.09,2.54-1.33,4.82-.57,7.6-.61-.2,3.44.45,6.47-.21,9.85-.49,2.54-3.51,4.26-5.68,4.51-1.98.23-6.42-.89-6.73-3.7-.67-6.2-.66-12.41-.1-18.64.4-4.43,6.45-5.9,9.1-4.07,3.78,2.6,5.68,6.9,1.52,10.67-1.85-2.17-.2-4.27-1.24-6.58-.72-1.6-5.86-1.91-6.21.1-.96,5.59-.57,11.07-.27,16.9.13,2.56,5.63,2.82,6.46.45Z"/>
      <path class="cls-11" d="M164.67,140.17c-2.92.72-.89-7.02-3.86-7.13-2.71-.1-5.3-.6-4.58,2.99.26,1.29-.11,2.33-.45,3.1-.42.97-2.29,1.52-3.71.58l5.24-26.4c1.29-.31,2.68-.44,3.77.05l5.42,25.7c.24,1.15-1.43,1.03-1.83,1.12ZM160.87,129.63c-.59-2.87.04-5.61-1.6-8.18-1.95,2.63-.58,5.31-1.98,8.06-.38.82,3.74,1.01,3.58.13Z"/>
      <path class="cls-1" d="M208.17,123.86l5.72,13.59c.32.77.55,1.42.36,2.14-1.52,5.98-7.21-11.66-8.53-12.74-2.77,2.92-1.17,6.01-1.42,9.29l-.25,3.28c-.05.66-2.55,1.08-2.63.43l-.21-26.47c1.04-.48,1.99-.35,2.98-.12l.27,10.03,8.57-10.22c.55-.65,2.11.17,2.25.59.17.48-.23,1.04-.75,1.73l-6.38,8.48Z"/>
      <path class="cls-9" d="M235.69,126.29c.97.04.66,1.89.53,2.31-.39,1.22-5.07,0-6.41.59-1.17.51-.39,7.52-.46,7.36.85,1.93,9.19-1.4,8.23,3.2-3.63.7-7.2.41-11.17.13l-.17-26.72,10.91-.06c.18,1.53.18,2.51,0,3.98l-7.85.09v8.84s6.39.28,6.39.28Z"/>
      <path class="cls-12" d="M254.95,117.36c2.98,7.85-.68,11.41.21,22.58-.88.27-2.02.39-2.84-.08l-.18-22.31c-1.06-.52-2.99-.57-3.57-1.01-6.09-4.61,9.82-3.54,11.41-3.17.81.45.23,3.05-.75,3.26-1.12.24-2.2.49-4.29.74Z"/>
      <path class="cls-1" d="M272.12,139.93c.65-3.56-.32-7.09-.16-10.61.21-4.53.91-8.76-.77-13.31-.44-1.18.8-1.9,1.02-2.48s2.81-.77,2.82-.13l.26,25.75c.01,1.19-.92,1.18-3.17.78Z"/>
      <path class="cls-7" d="M275.81,228.97c1.7,1.27,1.1,8.13,1,8.24-1.22,1.24-2.9,1.16-3.98.79-2.54-.87-1.93-8.08-.68-9.41.79-.84,2.19-.72,3.66.38Z"/>
      <path class="cls-6" d="M286.05,238.51c-3.08-.51-.89-2.75-2.76-3.94-1.92,1.17-.02,3.16-2.4,4.06-.85-3.24-2.02-10.16,1.87-10.64,1.84-.23,3.15.99,3.18,3.26l.1,7.27Z"/>
      <path class="cls-11" d="M182.45,238.27c-2.18-.6-1.6-2.41-2.86-3.24-1.98,11.84-4.01-6.85-.81-6.89.79,1.06,1.51,3.19,2.02,2.88.77-.45,0-2.29.97-2.99,2.4,2.25,1.9,6.11.68,10.24Z"/>
      <path class="cls-12" d="M141.38,228.52c1.41,1.26,1.09,6.63.46,8.63-.33,1.03-3.8,1.66-4.16.58-.91-2.69-.56-6.55-.08-9.25.2-.84,3.15-.52,3.79.05Z"/>
      <path class="cls-11" d="M311.34,228.52c1.51,1.37,1.11,6.72.5,8.63-.33,1.03-3.79,1.66-4.16.58-.92-2.68-.52-6.58-.12-9.24.34-.82,3.16-.53,3.79.03Z"/>
      <path class="cls-7" d="M218.1,238.38c-2.92-.24-1.32-1.91-2.26-3.33-1.29.85.47,2.83-2.13,3.51-.84-3.14-.51-6.12-.32-9.79.06-1.23,4.16-1.11,4.52.49.68,3.06.4,5.73.19,9.12Z"/>
      <path class="cls-1" d="M303.18,238.35c-3.02-.14-1.4-1.88-2.34-3.3-1.31.86.52,2.81-2.18,3.54-.71-3.77-.61-7.17-.05-10.83,2.58.41,1.12,2.01,2.06,3.42,1.28-.85-.5-2.82,2.15-3.54.85,3.62.35,6.73.36,10.72Z"/>
      <path class="cls-12" d="M172.92,233.18c2.17.06,1.27,2.14,1,3.02-.38,1.22-1.86,2.99-3.82,1.76-2.45-1.54-2.54-6.34-.79-8.58.86-1.1,2.31-1.57,3.27-1.27.87.26,1.71,2.6,1.13,2.9-1.12.02-1.8-.59-2.17-.74-1.31-.51-1.25.52-1.34,1.37-.15,1.44.59,1.48,2.73,1.54Z"/>
      <path class="cls-7" d="M235.15,238.1c-1.58.49-2.06-1.5-2.51-1.59-.74-.13-1.14,1.82-3.25,1.79.54-3.55,1.01-7,2.71-11.01,3.07,3.21,2.77,7.25,3.05,10.81Z"/>
      <path class="cls-8" d="M295.49,238.05c-2.62.35-2.49-1.08-3.25-1.49-.9-.49-.67,1.42-2.72,1.94-.14-3.65-.13-7.76,2.8-11.23,2.17,3.87,1.62,7.2,3.17,10.78Z"/>
      <path class="cls-8" d="M155.55,237.47c-.79-.79-.73-1.8-1.78-1.4-.47.18-.86-.52-.02-.95.4-.2,1.06.46,1.84.86,4.05,2.05-2.21-3.64-2.25-4.53-.08-1.7,1.66-2.74,2.68-3.22,1.52-.72,3.97.96,2.94,2.66-.32.54-1.5-.24-1.68-.5-.5-.72-1.81.92-.84,1.39,2.05.98,3.18,1.74,2.91,3.84-.2,1.53-1.9,3.74-3.81,1.84Z"/>
      <path class="cls-11" d="M225.83,233.07c.07.87-1.47,1.18-1.59,1.68-.28,1.19,1.06,1.06,2.39,1.44,1.1.31-.09,1.17-.49,1.58s-2.2.46-3.49.28c-.72-2.68-.59-6.67-.13-9.6,1.12-.97,4.49-.17,4.58,1.36-.49.47-1.72.45-2.13.48-.62.05-.99.51-.69,1.19.17.38,1.47.52,1.55,1.58Z"/>
      <path class="cls-9" d="M261.41,227.28c2.42,4.39-.02,11.99-.1,12.34-.89,4.16-4.73-9.2.1-12.34Z"/>
      <path class="cls-8" d="M150.04,232.6c.05,1.35-1.43,1.69-1.59,2.85.73.63,1.78.8,1.76,1.19-.05.77-.3,1.16-.67,1.26-.43.12-1.84.41-2.86.21-.9-2.66-.34-5.64-.35-9.35,0-1.08,3.92-1.12,3.98.19.06,1.23-1.75,1.11-1.86,1.75s.66,1.24,1.58,1.89Z"/>
      <path class="cls-12" d="M249.86,233.04c.26.78-1.08,1.32-1.31,1.85-.44.98,1.71,1.28,1.65,2.02-.13,1.56-3.33,1.63-3.65.84-.63-2.42-.27-5.69-.22-8.95.02-1.17,3.93-1.15,3.97.15.04,1.21-1.65,1.21-1.87,1.87s1.04,1.03,1.43,2.22Z"/>
      <path class="cls-7" d="M206.67,230.37c-.7.21-.65,5.08-.03,5.39.46.24,1.75-.98,2.28-.47,1.05,1.03-.49,2.51-1.24,2.76-1.36.45-3.1-.13-3.36-2.01-.45-3.28-.7-7.89,2.42-8.04,1.36-.06,3.62,1.98,1.93,2.9-.6.32-1.68-.64-2.01-.54Z"/>
      <rect class="cls-3" x="162.25" y="228.11" width="3" height="10"/>
      <path class="cls-7" d="M241.28,236.55c-4.07,6.88.15-6.41-3.89-6.97.2-1.48,3.77-2.23,4.51-1.06.37,2.16-1.4,4.83-.62,8.03Z"/>
      <path class="cls-2" d="M194.01,240.05c-2.18,2.88-2.71-14.5-.35-12.64,1.16,4.14.57,7.52.35,12.64Z"/>
    </g>
  </g>
</svg>